<svg xmlns="http://www.w3.org/2000/svg" width="760" height="420" viewBox="0 0 760 420" role="img">
<rect width="760" height="420" rx="12" fill="#1b1d22"/>
<text x="48" y="20" font-size="14" font-weight="700" fill="#15d6c6" font-family="ui-monospace,monospace">every metric vs no-skill baseline · lower is leaner · haiku · 2 tasks · n=1</text>
<rect x="48" y="32" width="12" height="12" rx="2" fill="#9aa0a6"/><text x="66" y="42" font-size="12" fill="#e8eaed" font-family="ui-monospace,monospace">baseline</text><rect x="198" y="32" width="12" height="12" rx="2" fill="#e6007a"/><text x="216" y="42" font-size="12" fill="#e8eaed" font-family="ui-monospace,monospace">kittens-crew</text><rect x="348" y="32" width="12" height="12" rx="2" fill="#e8a33d"/><text x="366" y="42" font-size="12" fill="#e8eaed" font-family="ui-monospace,monospace">caveman</text><rect x="498" y="32" width="12" height="12" rx="2" fill="#39b54a"/><text x="516" y="42" font-size="12" fill="#e8eaed" font-family="ui-monospace,monospace">ponytail</text><line x1="48" y1="148.61111111111111" x2="740" y2="148.61111111111111" stroke="#555" stroke-dasharray="4 4"/><text x="42" y="152.61111111111111" font-size="10" fill="#9aa0a6" text-anchor="end" font-family="ui-monospace,monospace">100%</text><rect x="58.5" y="148.6" width="35.0" height="201.4" rx="3" fill="#9aa0a6"/><text x="76.0" y="143.6" font-size="11" fill="#9aa0a6" text-anchor="middle" font-family="ui-monospace,monospace">100%</text><rect x="96.5" y="110.3" width="35.0" height="239.7" rx="3" fill="#e6007a"/><text x="114.0" y="105.3" font-size="11" fill="#e6007a" text-anchor="middle" font-family="ui-monospace,monospace">119%</text><rect x="134.5" y="60.0" width="35.0" height="290.0" rx="3" fill="#e8a33d"/><text x="152.0" y="55.0" font-size="11" fill="#e8a33d" text-anchor="middle" font-family="ui-monospace,monospace">144%</text><rect x="172.5" y="199.0" width="35.0" height="151.0" rx="3" fill="#39b54a"/><text x="190.0" y="194.0" font-size="11" fill="#39b54a" text-anchor="middle" font-family="ui-monospace,monospace">75%</text><text x="134.5" y="372" font-size="14" fill="#e8eaed" text-anchor="middle" font-family="ui-monospace,monospace">LOC</text><text x="134.5" y="388" font-size="10" fill="#9aa0a6" text-anchor="middle" font-family="ui-monospace,monospace">base 8</text><rect x="231.5" y="148.6" width="35.0" height="201.4" rx="3" fill="#9aa0a6"/><text x="249.0" y="143.6" font-size="11" fill="#9aa0a6" text-anchor="middle" font-family="ui-monospace,monospace">100%</text><rect x="269.5" y="140.6" width="35.0" height="209.4" rx="3" fill="#e6007a"/><text x="287.0" y="135.6" font-size="11" fill="#e6007a" text-anchor="middle" font-family="ui-monospace,monospace">104%</text><rect x="307.5" y="199.0" width="35.0" height="151.0" rx="3" fill="#e8a33d"/><text x="325.0" y="194.0" font-size="11" fill="#e8a33d" text-anchor="middle" font-family="ui-monospace,monospace">75%</text><rect x="345.5" y="166.7" width="35.0" height="183.3" rx="3" fill="#39b54a"/><text x="363.0" y="161.7" font-size="11" fill="#39b54a" text-anchor="middle" font-family="ui-monospace,monospace">91%</text><text x="307.5" y="372" font-size="14" fill="#e8eaed" text-anchor="middle" font-family="ui-monospace,monospace">tokens</text><text x="307.5" y="388" font-size="10" fill="#9aa0a6" text-anchor="middle" font-family="ui-monospace,monospace">base 2847</text><rect x="404.5" y="148.6" width="35.0" height="201.4" rx="3" fill="#9aa0a6"/><text x="422.0" y="143.6" font-size="11" fill="#9aa0a6" text-anchor="middle" font-family="ui-monospace,monospace">100%</text><rect x="442.5" y="104.3" width="35.0" height="245.7" rx="3" fill="#e6007a"/><text x="460.0" y="99.3" font-size="11" fill="#e6007a" text-anchor="middle" font-family="ui-monospace,monospace">122%</text><rect x="480.5" y="140.6" width="35.0" height="209.4" rx="3" fill="#e8a33d"/><text x="498.0" y="135.6" font-size="11" fill="#e8a33d" text-anchor="middle" font-family="ui-monospace,monospace">104%</text><rect x="518.5" y="132.5" width="35.0" height="217.5" rx="3" fill="#39b54a"/><text x="536.0" y="127.5" font-size="11" fill="#39b54a" text-anchor="middle" font-family="ui-monospace,monospace">108%</text><text x="480.5" y="372" font-size="14" fill="#e8eaed" text-anchor="middle" font-family="ui-monospace,monospace">cost</text><text x="480.5" y="388" font-size="10" fill="#9aa0a6" text-anchor="middle" font-family="ui-monospace,monospace">base $0.107</text><rect x="577.5" y="148.6" width="35.0" height="201.4" rx="3" fill="#9aa0a6"/><text x="595.0" y="143.6" font-size="11" fill="#9aa0a6" text-anchor="middle" font-family="ui-monospace,monospace">100%</text><rect x="615.5" y="150.6" width="35.0" height="199.4" rx="3" fill="#e6007a"/><text x="633.0" y="145.6" font-size="11" fill="#e6007a" text-anchor="middle" font-family="ui-monospace,monospace">99%</text><rect x="653.5" y="188.9" width="35.0" height="161.1" rx="3" fill="#e8a33d"/><text x="671.0" y="183.9" font-size="11" fill="#e8a33d" text-anchor="middle" font-family="ui-monospace,monospace">80%</text><rect x="691.5" y="172.8" width="35.0" height="177.2" rx="3" fill="#39b54a"/><text x="709.0" y="167.8" font-size="11" fill="#39b54a" text-anchor="middle" font-family="ui-monospace,monospace">88%</text><text x="653.5" y="372" font-size="14" fill="#e8eaed" text-anchor="middle" font-family="ui-monospace,monospace">time</text><text x="653.5" y="388" font-size="10" fill="#9aa0a6" text-anchor="middle" font-family="ui-monospace,monospace">base 48s</text>
</svg>